{"accessors":[{"bufferView":2,"componentType":5126,"count":1133,"max":[2.3489980697631836,9.778553009033203,2.171391010284424],"min":[0,0,0],"type":"VEC3","byteOffset":0},{"bufferView":2,"byteOffset":13596,"componentType":5126,"count":1133,"max":[1,1,1],"min":[-1,-1,-1],"type":"VEC3"},{"bufferView":3,"componentType":5126,"count":1133,"max":[1,0.9999991059303284,1,1],"min":[-1,-0.9999997615814209,-1,-1],"type":"VEC4","byteOffset":0},{"bufferView":1,"componentType":5126,"count":1133,"max":[0.9938300251960754,0.9961869716644287],"min":[0.014131000265479088,0.021556999534368515],"type":"VEC2","byteOffset":0},{"bufferView":0,"componentType":5125,"count":2460,"max":[1132],"min":[0],"type":"SCALAR","byteOffset":0}],"asset":{"extras":{"author":"whoiskeo (https://sketchfab.com/whoiskeo)","license":"CC-BY-4.0 (http://creativecommons.org/licenses/by/4.0/)","source":"https://sketchfab.com/models/6ab82ad78087441781a3c8f70a516517","title":"iHome portable charger"},"generator":"Sketchfab-3.20.7","version":"2.0"},"bufferViews":[{"buffer":0,"byteLength":9840,"byteOffset":0,"name":"floatBufferViews","target":34963},{"buffer":0,"byteLength":9064,"byteOffset":9840,"byteStride":8,"name":"floatBufferViews","target":34962},{"buffer":0,"byteLength":27192,"byteOffset":18904,"byteStride":12,"name":"floatBufferViews","target":34962},{"buffer":0,"byteLength":18128,"byteOffset":46096,"byteStride":16,"name":"floatBufferViews","target":34962},{"buffer":0,"byteOffset":64224,"byteLength":72430}],"buffers":[{"byteLength":136656,"uri":"data:application/octet-stream;base64,"}],"images":[{"bufferView":4,"mimeType":"image/jpeg"}],"materials":[{"doubleSided":true,"emissiveFactor":[0,0,0],"name":"blinn1SG","pbrMetallicRoughness":{"baseColorFactor":[1,1,1,1],"baseColorTexture":{"index":0,"texCoord":0},"metallicFactor":0,"roughnessFactor":0.6},"alphaMode":"OPAQUE"}],"meshes":[{"primitives":[{"attributes":{"NORMAL":1,"POSITION":0,"TANGENT":2,"TEXCOORD_0":3},"indices":4,"material":0,"mode":4}]}],"nodes":[{"children":[1],"name":"RootNode (gltf orientation matrix)","rotation":[-0.7071067811865475,0,0,0.7071067811865476],"translation":[0,0,0],"scale":[1,1,1]},{"children":[2],"name":"RootNode (model correction matrix)"},{"children":[3],"name":"iHome.obj.cleaner.gles"},{"mesh":0,"name":""}],"samplers":[{"magFilter":9729,"minFilter":9987,"wrapS":10497,"wrapT":10497}],"scene":0,"scenes":[{"name":"OSG_Scene","nodes":[0]}],"textures":[{"sampler":0,"source":0}]}
